<svg version="1.1" xmlns="http://www.w3.org/2000/svg" xmlns:xlink="http://www.w3.org/1999/xlink" width="342" height="204"><defs/><g><g transform="translate(-246,-294) scale(1,1)"><rect fill="#C0C0C0" stroke="none" x="383" y="447" width="88" height="48" opacity="0.2"/></g><g transform="translate(-246,-294) scale(1,1)"><rect fill="#ffffff" stroke="none" x="376" y="440" width="88" height="48"/></g><g transform="translate(-246,-294) scale(1,1)"><path fill="none" stroke="#000000" d="M 376 440 L 464 440 L 464 488 L 376 488 L 376 440 Z Z" stroke-miterlimit="10"/></g><g transform="translate(-246,-294) scale(1,1)"><path fill="none" stroke="#000000" d="M 376 465 L 464 465" stroke-miterlimit="10"/></g><g transform="translate(-246,-294) scale(1,1)"><path fill="none" stroke="#000000" d="M 376 475 L 464 475" stroke-miterlimit="10"/></g><g transform="translate(-246,-294) scale(1,1)"><g><path fill="none" stroke="none"/><text fill="#000000" stroke="none" font-family="Arial" font-size="13px" font-style="normal" font-weight="bold" text-decoration="none" x="394" y="459.5">Executer</text></g></g><g transform="translate(-246,-294) scale(1,1)"><rect fill="#C0C0C0" stroke="none" x="263" y="311" width="50" height="44" opacity="0.2"/></g><g transform="translate(-246,-294) scale(1,1)"><rect fill="#ffffff" stroke="none" x="256" y="304" width="50" height="44"/></g><g transform="translate(-246,-294) scale(1,1)"><path fill="none" stroke="#000000" d="M 256 304 L 306 304 L 306 348 L 256 348 L 256 304 Z Z" stroke-miterlimit="10"/></g><g transform="translate(-246,-294) scale(1,1)"><path fill="none" stroke="#000000" d="M 256 329 L 306 329" stroke-miterlimit="10"/></g><g transform="translate(-246,-294) scale(1,1)"><path fill="none" stroke="#000000" d="M 256 339 L 306 339" stroke-miterlimit="10"/></g><g transform="translate(-246,-294) scale(1,1)"><g><path fill="none" stroke="none"/><text fill="#000000" stroke="none" font-family="Arial" font-size="13px" font-style="normal" font-weight="bold" text-decoration="none" x="274" y="323.5">cd</text></g></g><g transform="translate(-246,-294) scale(1,1)"><path fill="none" stroke="#000000" d="M 395 439 L 304 349" stroke-miterlimit="10"/></g><g transform="translate(-246,-294) scale(1,1)"><path fill="#FFFFFF" stroke="none" d="M 384.8142235928353 434.84669300638075 L 395 439 L 390.73439997038156 428.8607368913062 L 379.3579428613366 423.5298335991241"/></g><g transform="translate(-246,-294) scale(1,1)"><path fill="none" stroke="#000000" d="M 384.8142235928353 434.84669300638075 L 395 439 L 390.73439997038156 428.8607368913062 L 379.3579428613366 423.5298335991241 L 384.8142235928353 434.84669300638075" stroke-miterlimit="10"/></g><g transform="translate(-246,-294) scale(1,1)"><rect fill="#C0C0C0" stroke="none" x="359" y="311" width="50" height="44" opacity="0.2"/></g><g transform="translate(-246,-294) scale(1,1)"><rect fill="#ffffff" stroke="none" x="352" y="304" width="50" height="44"/></g><g transform="translate(-246,-294) scale(1,1)"><path fill="none" stroke="#000000" d="M 352 304 L 402 304 L 402 348 L 352 348 L 352 304 Z Z" stroke-miterlimit="10"/></g><g transform="translate(-246,-294) scale(1,1)"><path fill="none" stroke="#000000" d="M 352 329 L 402 329" stroke-miterlimit="10"/></g><g transform="translate(-246,-294) scale(1,1)"><path fill="none" stroke="#000000" d="M 352 339 L 402 339" stroke-miterlimit="10"/></g><g transform="translate(-246,-294) scale(1,1)"><g><path fill="none" stroke="none"/><text fill="#000000" stroke="none" font-family="Arial" font-size="13px" font-style="normal" font-weight="bold" text-decoration="none" x="369.5" y="323.5">rm</text></g></g><g transform="translate(-246,-294) scale(1,1)"><path fill="none" stroke="#000000" d="M 412 439 L 384 349" stroke-miterlimit="10"/></g><g transform="translate(-246,-294) scale(1,1)"><path fill="#FFFFFF" stroke="none" d="M 404.96152266006595 430.54660797459184 L 412 439 L 413.0004957688992 428.04559411851034 L 405.46453584200265 417.99315092072277"/></g><g transform="translate(-246,-294) scale(1,1)"><path fill="none" stroke="#000000" d="M 404.96152266006595 430.54660797459184 L 412 439 L 413.0004957688992 428.04559411851034 L 405.46453584200265 417.99315092072277 L 404.96152266006595 430.54660797459184" stroke-miterlimit="10"/></g><g transform="translate(-246,-294) scale(1,1)"><rect fill="#C0C0C0" stroke="none" x="455" y="311" width="50" height="44" opacity="0.2"/></g><g transform="translate(-246,-294) scale(1,1)"><rect fill="#ffffff" stroke="none" x="448" y="304" width="50" height="44"/></g><g transform="translate(-246,-294) scale(1,1)"><path fill="none" stroke="#000000" d="M 448 304 L 498 304 L 498 348 L 448 348 L 448 304 Z Z" stroke-miterlimit="10"/></g><g transform="translate(-246,-294) scale(1,1)"><path fill="none" stroke="#000000" d="M 448 329 L 498 329" stroke-miterlimit="10"/></g><g transform="translate(-246,-294) scale(1,1)"><path fill="none" stroke="#000000" d="M 448 339 L 498 339" stroke-miterlimit="10"/></g><g transform="translate(-246,-294) scale(1,1)"><g><path fill="none" stroke="none"/><text fill="#000000" stroke="none" font-family="Arial" font-size="13px" font-style="normal" font-weight="bold" text-decoration="none" x="468" y="323.5">ln</text></g></g><g transform="translate(-246,-294) scale(1,1)"><path fill="none" stroke="#000000" d="M 430 439 L 464 349" stroke-miterlimit="10"/></g><g transform="translate(-246,-294) scale(1,1)"><path fill="#FFFFFF" stroke="none" d="M 429.65360868583844 428.00545530467616 L 430 439 L 437.5293814629343 430.98074724269014 L 437.7748125118087 418.4196139393299"/></g><g transform="translate(-246,-294) scale(1,1)"><path fill="none" stroke="#000000" d="M 429.65360868583844 428.00545530467616 L 430 439 L 437.5293814629343 430.98074724269014 L 437.7748125118087 418.4196139393299 L 429.65360868583844 428.00545530467616" stroke-miterlimit="10"/></g><g transform="translate(-246,-294) scale(1,1)"><rect fill="#C0C0C0" stroke="none" x="535" y="311" width="50" height="44" opacity="0.2"/></g><g transform="translate(-246,-294) scale(1,1)"><rect fill="#ffffff" stroke="none" x="528" y="304" width="50" height="44"/></g><g transform="translate(-246,-294) scale(1,1)"><path fill="none" stroke="#000000" d="M 528 304 L 578 304 L 578 348 L 528 348 L 528 304 Z Z" stroke-miterlimit="10"/></g><g transform="translate(-246,-294) scale(1,1)"><path fill="none" stroke="#000000" d="M 528 329 L 578 329" stroke-miterlimit="10"/></g><g transform="translate(-246,-294) scale(1,1)"><path fill="none" stroke="#000000" d="M 528 339 L 578 339" stroke-miterlimit="10"/></g><g transform="translate(-246,-294) scale(1,1)"><g><path fill="none" stroke="none"/><text fill="#000000" stroke="none" font-family="Arial" font-size="13px" font-style="normal" font-weight="bold" text-decoration="none" x="542.5" y="323.5">exit</text></g></g><g transform="translate(-246,-294) scale(1,1)"><path fill="none" stroke="#000000" d="M 444 439 L 531 349" stroke-miterlimit="10"/></g><g transform="translate(-246,-294) scale(1,1)"><path fill="#FFFFFF" stroke="none" d="M 448.03668925377724 428.76744705029876 L 444 439 L 454.0898779244729 434.6188627653046 L 459.29048613064447 423.18225572691955"/></g><g transform="translate(-246,-294) scale(1,1)"><path fill="none" stroke="#000000" d="M 448.03668925377724 428.76744705029876 L 444 439 L 454.0898779244729 434.6188627653046 L 459.29048613064447 423.18225572691955 L 448.03668925377724 428.76744705029876" stroke-miterlimit="10"/></g></g></svg>