<svg version="1.1" xmlns="http://www.w3.org/2000/svg" xmlns:xlink="http://www.w3.org/1999/xlink" width="723.494140625" height="652"><defs/><g><g transform="translate(-230,-246) scale(1,1)"><rect fill="#C0C0C0" stroke="none" x="519" y="599" width="178.431640625" height="87" opacity="0.2"/></g><g transform="translate(-230,-246) scale(1,1)"><rect fill="#ffffff" stroke="none" x="512" y="592" width="178.431640625" height="87"/></g><g transform="translate(-230,-246) scale(1,1)"><path fill="none" stroke="#000000" d="M 512 592 L 690.431640625 592 L 690.431640625 679 L 512 679 L 512 592 Z Z" stroke-miterlimit="10"/></g><g transform="translate(-230,-246) scale(1,1)"><path fill="none" stroke="#000000" d="M 512 617 L 690.431640625 617" stroke-miterlimit="10"/></g><g transform="translate(-230,-246) scale(1,1)"><path fill="none" stroke="#000000" d="M 512 627 L 690.431640625 627" stroke-miterlimit="10"/></g><g transform="translate(-230,-246) scale(1,1)"><g><path fill="none" stroke="none"/><text fill="#000000" stroke="none" font-family="Arial" font-size="13px" font-style="normal" font-weight="bold" text-decoration="none" x="582.2158203125" y="611.5">Parser</text></g></g><g transform="translate(-230,-246) scale(1,1)"><g><path fill="none" stroke="none"/><text fill="#000000" stroke="none" font-family="Arial" font-size="13px" font-style="normal" font-weight="normal" text-decoration="none" x="517" y="644.5">+Job parse(char* line)</text></g></g><g transform="translate(-230,-246) scale(1,1)"><g><path fill="none" stroke="none"/><text fill="#000000" stroke="none" font-family="Arial" font-size="13px" font-style="normal" font-weight="normal" text-decoration="none" x="517" y="659.5">-void getParams(char* line)</text></g></g><g transform="translate(-230,-246) scale(1,1)"><rect fill="#C0C0C0" stroke="none" x="807" y="263" width="143.494140625" height="132" opacity="0.2"/></g><g transform="translate(-230,-246) scale(1,1)"><rect fill="#ffffff" stroke="none" x="800" y="256" width="143.494140625" height="132"/></g><g transform="translate(-230,-246) scale(1,1)"><path fill="none" stroke="#000000" d="M 800 256 L 943.494140625 256 L 943.494140625 388 L 800 388 L 800 256 Z Z" stroke-miterlimit="10"/></g><g transform="translate(-230,-246) scale(1,1)"><path fill="none" stroke="#000000" d="M 800 281 L 943.494140625 281" stroke-miterlimit="10"/></g><g transform="translate(-230,-246) scale(1,1)"><path fill="none" stroke="#000000" d="M 800 379 L 943.494140625 379" stroke-miterlimit="10"/></g><g transform="translate(-230,-246) scale(1,1)"><g><path fill="none" stroke="none"/><text fill="#000000" stroke="none" font-family="Arial" font-size="13px" font-style="normal" font-weight="bold" text-decoration="none" x="861.2470703125" y="275.5">Job</text></g></g><g transform="translate(-230,-246) scale(1,1)"><g><path fill="none" stroke="none"/><text fill="#000000" stroke="none" font-family="Arial" font-size="13px" font-style="normal" font-weight="normal" text-decoration="none" x="805" y="298.5">+path: char*</text></g></g><g transform="translate(-230,-246) scale(1,1)"><g><path fill="none" stroke="none"/><text fill="#000000" stroke="none" font-family="Arial" font-size="13px" font-style="normal" font-weight="normal" text-decoration="none" x="805" y="313.5">+argv[]: char*</text></g></g><g transform="translate(-230,-246) scale(1,1)"><g><path fill="none" stroke="none"/><text fill="#000000" stroke="none" font-family="Arial" font-size="13px" font-style="normal" font-weight="normal" text-decoration="none" x="805" y="328.5">+outputOption: enum</text></g></g><g transform="translate(-230,-246) scale(1,1)"><g><path fill="none" stroke="none"/><text fill="#000000" stroke="none" font-family="Arial" font-size="13px" font-style="normal" font-weight="normal" text-decoration="none" x="805" y="343.5">+outputTo: char*</text></g></g><g transform="translate(-230,-246) scale(1,1)"><g><path fill="none" stroke="none"/><text fill="#000000" stroke="none" font-family="Arial" font-size="13px" font-style="normal" font-weight="normal" text-decoration="none" x="805" y="358.5">+inputOption: enum</text></g></g><g transform="translate(-230,-246) scale(1,1)"><g><path fill="none" stroke="none"/><text fill="#000000" stroke="none" font-family="Arial" font-size="13px" font-style="normal" font-weight="normal" text-decoration="none" x="805" y="373.5">+inputFrom: char*</text></g></g><g transform="translate(-230,-246) scale(1,1)"><rect fill="#C0C0C0" stroke="none" x="799" y="599" width="147.5693359375" height="102" opacity="0.2"/></g><g transform="translate(-230,-246) scale(1,1)"><rect fill="#ffffff" stroke="none" x="792" y="592" width="147.5693359375" height="102"/></g><g transform="translate(-230,-246) scale(1,1)"><path fill="none" stroke="#000000" d="M 792 592 L 939.5693359375 592 L 939.5693359375 694 L 792 694 L 792 592 Z Z" stroke-miterlimit="10"/></g><g transform="translate(-230,-246) scale(1,1)"><path fill="none" stroke="#000000" d="M 792 617 L 939.5693359375 617" stroke-miterlimit="10"/></g><g transform="translate(-230,-246) scale(1,1)"><path fill="none" stroke="#000000" d="M 792 627 L 939.5693359375 627" stroke-miterlimit="10"/></g><g transform="translate(-230,-246) scale(1,1)"><g><path fill="none" stroke="none"/><text fill="#000000" stroke="none" font-family="Arial" font-size="13px" font-style="normal" font-weight="bold" text-decoration="none" x="839.78466796875" y="611.5">Executor</text></g></g><g transform="translate(-230,-246) scale(1,1)"><g><path fill="none" stroke="none"/><text fill="#000000" stroke="none" font-family="Arial" font-size="13px" font-style="normal" font-weight="normal" text-decoration="none" x="797" y="644.5">+void execute(Job job)</text></g></g><g transform="translate(-230,-246) scale(1,1)"><g><path fill="none" stroke="none"/><text fill="#000000" stroke="none" font-family="Arial" font-size="13px" font-style="normal" font-weight="normal" text-decoration="none" x="797" y="659.5">-void findCmd()</text></g></g><g transform="translate(-230,-246) scale(1,1)"><g><path fill="none" stroke="none"/><text fill="#000000" stroke="none" font-family="Arial" font-size="13px" font-style="normal" font-weight="normal" text-decoration="none" x="797" y="674.5">-void prepareIO()</text></g></g><g transform="translate(-230,-246) scale(1,1)"><g><path fill="none" stroke="none"/><text fill="#000000" stroke="none" font-family="Arial" font-size="13px" font-style="normal" font-weight="normal" text-decoration="none" x="797" y="689.5">-void forkThread()</text></g></g><g transform="translate(-230,-246) scale(1,1)"><path fill="none" stroke="#000000" d="M 639 591 L 813 389" stroke-miterlimit="10" stroke-dasharray="3"/></g><g transform="translate(-230,-246) scale(1,1)"><path fill="none" stroke="#000000" d="M 809.5568110756061 399.4472221203022 L 813 389 L 803.1779961568269 393.9525993684825" stroke-miterlimit="10"/></g><g transform="translate(-230,-246) scale(1,1)"><path fill="none" stroke="#000000" d="M 866 591 L 870 389" stroke-miterlimit="10" stroke-dasharray="3"/></g><g transform="translate(-230,-246) scale(1,1)"><path fill="none" stroke="#000000" d="M 874.0074910412065 399.2440234065844 L 870 389 L 865.5901056733519 399.077342508211" stroke-miterlimit="10"/></g><g transform="translate(-230,-246) scale(1,1)"><rect fill="#C0C0C0" stroke="none" x="247" y="607" width="159" height="72" opacity="0.2"/></g><g transform="translate(-230,-246) scale(1,1)"><rect fill="#ffffff" stroke="none" x="240" y="600" width="159" height="72"/></g><g transform="translate(-230,-246) scale(1,1)"><path fill="none" stroke="#000000" d="M 240 600 L 399 600 L 399 672 L 240 672 L 240 600 Z Z" stroke-miterlimit="10"/></g><g transform="translate(-230,-246) scale(1,1)"><path fill="none" stroke="#000000" d="M 240 625 L 399 625" stroke-miterlimit="10"/></g><g transform="translate(-230,-246) scale(1,1)"><path fill="none" stroke="#000000" d="M 240 635 L 399 635" stroke-miterlimit="10"/></g><g transform="translate(-230,-246) scale(1,1)"><g><path fill="none" stroke="none"/><text fill="#000000" stroke="none" font-family="Arial" font-size="13px" font-style="normal" font-weight="bold" text-decoration="none" x="299" y="619.5">Reader</text></g></g><g transform="translate(-230,-246) scale(1,1)"><g><path fill="none" stroke="none"/><text fill="#000000" stroke="none" font-family="Arial" font-size="13px" font-style="normal" font-weight="normal" text-decoration="none" x="245" y="652.5">+void prompt(char* PS1)</text></g></g><g transform="translate(-230,-246) scale(1,1)"><g><path fill="none" stroke="none"/><text fill="#000000" stroke="none" font-family="Arial" font-size="13px" font-style="normal" font-weight="normal" text-decoration="none" x="245" y="667.5">+char* read()</text></g></g><g transform="translate(-230,-246) scale(1,1)"><path fill="none" stroke="#000000" d="M 400 636 L 511 635" stroke-miterlimit="10"/></g><g transform="translate(-230,-246) scale(1,1)"><path fill="none" stroke="#000000" d="M 500.8756595745177 639.3008988536056 L 511 635 L 500.7998154855184 630.8822049746824" stroke-miterlimit="10"/></g><g transform="translate(-230,-246) scale(1,1)"><g><path fill="none" stroke="none"/><text fill="#000000" stroke="none" font-family="Arial" font-size="13px" font-style="normal" font-weight="normal" text-decoration="none" x="423.8505859375" y="626.5">+char* line</text></g></g><g transform="translate(-230,-246) scale(1,1)"><path fill="none" stroke="#000000" d="M 691 638 L 791 641" stroke-miterlimit="10"/></g><g transform="translate(-230,-246) scale(1,1)"><path fill="none" stroke="#000000" d="M 780.7156665189414 644.9028816085524 L 791 641 L 780.9681240039839 636.4876321071353" stroke-miterlimit="10"/></g><g transform="translate(-230,-246) scale(1,1)"><g><path fill="none" stroke="none"/><text fill="#000000" stroke="none" font-family="Arial" font-size="13px" font-style="normal" font-weight="normal" text-decoration="none" x="710.85888671875" y="629.5">+Job job</text></g></g><g transform="translate(-230,-246) scale(1,1)"><rect fill="#C0C0C0" stroke="none" x="551" y="823" width="103.85302734375" height="72" opacity="0.2"/></g><g transform="translate(-230,-246) scale(1,1)"><rect fill="#ffffff" stroke="none" x="544" y="816" width="103.85302734375" height="72"/></g><g transform="translate(-230,-246) scale(1,1)"><path fill="none" stroke="#000000" d="M 544 816 L 647.85302734375 816 L 647.85302734375 888 L 544 888 L 544 816 Z Z" stroke-miterlimit="10"/></g><g transform="translate(-230,-246) scale(1,1)"><path fill="none" stroke="#000000" d="M 544 841 L 647.85302734375 841" stroke-miterlimit="10"/></g><g transform="translate(-230,-246) scale(1,1)"><path fill="none" stroke="#000000" d="M 544 851 L 647.85302734375 851" stroke-miterlimit="10"/></g><g transform="translate(-230,-246) scale(1,1)"><g><path fill="none" stroke="none"/><text fill="#000000" stroke="none" font-family="Arial" font-size="13px" font-style="normal" font-weight="bold" text-decoration="none" x="579.926513671875" y="835.5">Mysh</text></g></g><g transform="translate(-230,-246) scale(1,1)"><g><path fill="none" stroke="none"/><text fill="#000000" stroke="none" font-family="Arial" font-size="13px" font-style="normal" font-weight="normal" text-decoration="none" x="549" y="868.5">+void init()</text></g></g><g transform="translate(-230,-246) scale(1,1)"><g><path fill="none" stroke="none"/><text fill="#000000" stroke="none" font-family="Arial" font-size="13px" font-style="normal" font-weight="normal" text-decoration="none" x="549" y="883.5">+void cleanup()</text></g></g><g transform="translate(-230,-246) scale(1,1)"><path fill="none" stroke="#000000" d="M 548 815 L 366 673" stroke-miterlimit="10"/></g><g transform="translate(-230,-246) scale(1,1)"><path fill="#FFFFFF" stroke="none" d="M 376.6018792531545 675.9326023087921 L 366 673 L 371.42299773415635 682.5703236922967 L 383.34520186171034 686.5330695844114"/></g><g transform="translate(-230,-246) scale(1,1)"><path fill="none" stroke="#000000" d="M 376.6018792531545 675.9326023087921 L 366 673 L 371.42299773415635 682.5703236922967 L 383.34520186171034 686.5330695844114 L 376.6018792531545 675.9326023087921" stroke-miterlimit="10"/></g><g transform="translate(-230,-246) scale(1,1)"><path fill="none" stroke="#000000" d="M 596 815 L 600 680" stroke-miterlimit="10"/></g><g transform="translate(-230,-246) scale(1,1)"><path fill="#FFFFFF" stroke="none" d="M 603.9066869706984 690.2828885490885 L 600 680 L 595.4913446257079 690.0335450721999 L 599.3484340951277 701.9903492894408"/></g><g transform="translate(-230,-246) scale(1,1)"><path fill="none" stroke="#000000" d="M 603.9066869706984 690.2828885490885 L 600 680 L 595.4913446257079 690.0335450721999 L 599.3484340951277 701.9903492894408 L 603.9066869706984 690.2828885490885" stroke-miterlimit="10"/></g><g transform="translate(-230,-246) scale(1,1)"><path fill="none" stroke="#000000" d="M 643 815 L 798 695" stroke-miterlimit="10"/></g><g transform="translate(-230,-246) scale(1,1)"><path fill="#FFFFFF" stroke="none" d="M 792.5410859829591 704.549882604229 L 798 695 L 787.3871781316503 697.8927516296218 L 780.6040784324939 708.4678102458112"/></g><g transform="translate(-230,-246) scale(1,1)"><path fill="none" stroke="#000000" d="M 792.5410859829591 704.549882604229 L 798 695 L 787.3871781316503 697.8927516296218 L 780.6040784324939 708.4678102458112 L 792.5410859829591 704.549882604229" stroke-miterlimit="10"/></g><g transform="translate(-230,-246) scale(1,1)"><rect fill="#C0C0C0" stroke="none" x="455" y="471" width="153" height="72" opacity="0.2"/></g><g transform="translate(-230,-246) scale(1,1)"><rect fill="#ffffff" stroke="none" x="448" y="464" width="153" height="72"/></g><g transform="translate(-230,-246) scale(1,1)"><path fill="none" stroke="#000000" d="M 448 464 L 601 464 L 601 536 L 448 536 L 448 464 Z Z" stroke-miterlimit="10"/></g><g transform="translate(-230,-246) scale(1,1)"><path fill="none" stroke="#000000" d="M 448 489 L 601 489" stroke-miterlimit="10"/></g><g transform="translate(-230,-246) scale(1,1)"><path fill="none" stroke="#000000" d="M 448 499 L 601 499" stroke-miterlimit="10"/></g><g transform="translate(-230,-246) scale(1,1)"><g><path fill="none" stroke="none"/><text fill="#000000" stroke="none" font-family="Arial" font-size="13px" font-style="normal" font-weight="bold" text-decoration="none" x="500.5" y="483.5">Scanner</text></g></g><g transform="translate(-230,-246) scale(1,1)"><g><path fill="none" stroke="none"/><text fill="#000000" stroke="none" font-family="Arial" font-size="13px" font-style="normal" font-weight="normal" text-decoration="none" x="453" y="516.5">+void scanInit(char* line)</text></g></g><g transform="translate(-230,-246) scale(1,1)"><g><path fill="none" stroke="none"/><text fill="#000000" stroke="none" font-family="Arial" font-size="13px" font-style="normal" font-weight="normal" text-decoration="none" x="453" y="531.5">+TokenType getToken()</text></g></g><g transform="translate(-230,-246) scale(1,1)"><path fill="none" stroke="#000000" d="M 576 591 L 545 537" stroke-miterlimit="10"/></g><g transform="translate(-230,-246) scale(1,1)"><path fill="#FFFFFF" stroke="none" d="M 553.7103830233154 543.717829082906 L 545 537 L 546.4089484031435 547.9093934018936 L 555.9530854081729 556.0795681303657"/></g><g transform="translate(-230,-246) scale(1,1)"><path fill="none" stroke="#000000" d="M 553.7103830233154 543.717829082906 L 545 537 L 546.4089484031435 547.9093934018936 L 555.9530854081729 556.0795681303657 L 553.7103830233154 543.717829082906" stroke-miterlimit="10"/></g></g></svg>